<svg xmlns="http://www.w3.org/2000/svg" xmlns:xlink="http://www.w3.org/1999/xlink" width="123" height="102" viewBox="0 0 123 102"><defs><path id="a" d="M0 11.196V.115h9.6v11.08z"/><path id="c" d="M0 101.924h122.275V0H0z"/></defs><g fill="none" fill-rule="evenodd"><path fill="#B2B2B1" d="M28.763 76.91c-.239.19-.47.341-.698.45-.229.11-.46.185-.695.225a4.47 4.47 0 0 1-.75.06c-.43 0-.804-.073-1.123-.221a2.15 2.15 0 0 1-.791-.618 2.715 2.715 0 0 1-.473-.946 4.3 4.3 0 0 1-.157-1.193 5.67 5.67 0 0 1 .48-2.278 5 5 0 0 1 .563-.966 3.98 3.98 0 0 1 .743-.765 3.39 3.39 0 0 1 .897-.506 2.884 2.884 0 0 1 1.031-.185c.245 0 .467.025.665.073a2.22 2.22 0 0 1 .994.526c.135.127.26.266.376.422l-.21.247a.2.2 0 0 1-.158.081c-.05 0-.111-.04-.184-.119a2.06 2.06 0 0 0-.77-.517 1.948 1.948 0 0 0-.734-.12c-.421 0-.813.112-1.175.337a3.21 3.21 0 0 0-.945.906 4.57 4.57 0 0 0-.63 1.315 5.24 5.24 0 0 0-.23 1.553c0 .346.038.665.116.96.077.293.197.549.36.764.162.213.366.381.612.501.244.119.536.179.87.179a2.678 2.678 0 0 0 1.272-.299 2.42 2.42 0 0 0 .428-.281c.122-.103.232-.197.327-.282.095-.085.177-.156.243-.213.068-.058.13-.086.185-.086a.22.22 0 0 1 .157.074l.158.194a6.468 6.468 0 0 1-.754.729zm4.492.173a2.16 2.16 0 0 0 1.189-.342c.358-.226.664-.529.92-.906.255-.378.45-.81.589-1.298a5.53 5.53 0 0 0 .206-1.503c0-.8-.177-1.417-.533-1.852-.355-.434-.848-.651-1.478-.651-.29 0-.563.05-.818.153a2.472 2.472 0 0 0-.705.431c-.216.185-.41.404-.583.655a4.073 4.073 0 0 0-.434.83c-.118.3-.209.617-.272.95a5.725 5.725 0 0 0-.093 1.028c0 .795.176 1.411.53 1.849.352.437.847.656 1.482.656m-.06.562c-.401 0-.765-.07-1.092-.21a2.29 2.29 0 0 1-.84-.607 2.8 2.8 0 0 1-.541-.963 4.027 4.027 0 0 1-.191-1.287c0-.604.09-1.185.27-1.742.18-.558.432-1.048.762-1.473a3.802 3.802 0 0 1 1.166-1.017c.45-.252.946-.379 1.486-.379.4 0 .764.072 1.092.214.327.143.608.345.84.608.233.262.413.583.54.963.129.38.193.806.193 1.275 0 .604-.091 1.184-.275 1.74a4.972 4.972 0 0 1-.761 1.472 3.81 3.81 0 0 1-1.163 1.025c-.45.254-.946.38-1.486.38m7.475-.561a2.16 2.16 0 0 0 1.189-.342c.358-.226.664-.529.92-.906.255-.378.45-.81.589-1.298a5.53 5.53 0 0 0 .206-1.503c0-.8-.178-1.417-.533-1.852-.355-.434-.848-.651-1.478-.651-.29 0-.563.05-.818.153a2.472 2.472 0 0 0-.705.431c-.217.185-.41.404-.583.655a4.073 4.073 0 0 0-.434.83c-.118.3-.209.617-.272.95a5.638 5.638 0 0 0-.093 1.028c0 .795.176 1.411.53 1.849.352.437.846.656 1.482.656m-.06.562c-.401 0-.765-.07-1.093-.21a2.294 2.294 0 0 1-.84-.607 2.8 2.8 0 0 1-.54-.963 4.027 4.027 0 0 1-.192-1.287c0-.604.09-1.185.27-1.742a4.795 4.795 0 0 1 .762-1.473 3.802 3.802 0 0 1 1.166-1.017c.45-.252.947-.379 1.487-.379.4 0 .764.072 1.092.214.327.143.608.345.84.608.233.262.413.583.54.963.129.38.192.806.192 1.275a5.5 5.5 0 0 1-.274 1.74 4.995 4.995 0 0 1-.761 1.472 3.81 3.81 0 0 1-1.163 1.025c-.45.254-.946.38-1.487.38m4.924-.096l.9-7.484h.323c.175 0 .262.09.262.271l-.217 2.22c.34-.815.73-1.444 1.168-1.887.437-.442.904-.663 1.4-.663.204 0 .413.044.63.127l-.128.669a1.86 1.86 0 0 0-.646-.128c-.536 0-1.017.263-1.445.791-.427.527-.794 1.288-1.1 2.282l-.45 3.802h-.697zm6.724-.48c.285 0 .57-.079.855-.237.286-.157.562-.38.83-.67.268-.29.517-.638.75-1.046.233-.408.438-.859.62-1.353l.262-2.16c-.215-.39-.483-.665-.804-.825a2.197 2.197 0 0 0-.997-.24c-.315 0-.61.065-.881.192-.274.128-.52.3-.744.52-.222.22-.42.476-.592.766a5.32 5.32 0 0 0-.436.922 6.118 6.118 0 0 0-.363 2.002c0 .67.126 1.191.381 1.567.256.375.63.562 1.119.562zm2.95.48c-.096 0-.162-.023-.2-.068a.248.248 0 0 1-.056-.165l.248-2.376a7.076 7.076 0 0 1-.657 1.106 5.266 5.266 0 0 1-.769.854 3.3 3.3 0 0 1-.848.552 2.228 2.228 0 0 1-.9.194c-.327 0-.611-.063-.856-.187a1.705 1.705 0 0 1-.615-.532 2.496 2.496 0 0 1-.376-.834 4.297 4.297 0 0 1-.127-1.094c0-.379.04-.768.12-1.166.08-.397.194-.782.342-1.154.146-.372.327-.722.54-1.05a4.35 4.35 0 0 1 .723-.858 3.31 3.31 0 0 1 .886-.58 2.49 2.49 0 0 1 1.029-.215c.404 0 .777.088 1.117.267.34.176.621.443.84.797l.55-4.4h.69l-1.336 10.91h-.346zm6.289-7.041c-.4 0-.761.086-1.084.256a2.953 2.953 0 0 0-.857.678c-.247.283-.454.61-.621.983-.17.372-.293.76-.372 1.165.636-.07 1.183-.15 1.643-.244.46-.092.85-.19 1.171-.292.32-.102.579-.214.777-.334a1.92 1.92 0 0 0 .461-.371c.11-.127.184-.258.221-.393.038-.135.057-.275.057-.42a.943.943 0 0 0-.307-.676 1.432 1.432 0 0 0-.432-.251 1.895 1.895 0 0 0-.657-.1m2.027 1.005c0 .204-.028.398-.084.585-.055.184-.152.36-.292.524a2.36 2.36 0 0 1-.57.469 4.39 4.39 0 0 1-.923.404c-.376.124-.823.233-1.344.33-.52.097-1.13.184-1.83.26a6.78 6.78 0 0 0-.024.31c-.004.102-.008.204-.008.303 0 .746.17 1.328.507 1.748.339.42.848.628 1.528.628.265 0 .504-.027.717-.084.212-.058.403-.131.57-.221.167-.09.315-.186.443-.286a6.12 6.12 0 0 0 .34-.285c.102-.09.187-.163.26-.22.073-.059.139-.087.2-.087a.2.2 0 0 1 .156.076l.166.194c-.246.26-.484.483-.717.67a3.9 3.9 0 0 1-.706.461c-.238.12-.483.21-.74.267a3.728 3.728 0 0 1-.817.086c-.416 0-.783-.07-1.106-.206a2.193 2.193 0 0 1-.815-.585 2.538 2.538 0 0 1-.502-.922 3.992 3.992 0 0 1-.173-1.218 5.823 5.823 0 0 1 .446-2.226c.147-.35.33-.678.548-.983.217-.305.466-.57.747-.794.28-.225.59-.404.93-.534a3.08 3.08 0 0 1 1.104-.195c.365 0 .673.053.927.154.252.103.457.23.614.383a1.416 1.416 0 0 1 .448.994m1.132 6.035l.901-7.484h.322c.171 0 .256.09.256.271l-.218 2.16a6.49 6.49 0 0 1 .68-1.062 4.83 4.83 0 0 1 .783-.794 3.28 3.28 0 0 1 .849-.495c.29-.112.581-.17.877-.17.556 0 .973.184 1.254.55.28.363.42.886.42 1.566 0 .045 0 .097-.004.154-.002.057-.01.148-.022.273l-.056.529-.105.921-.17 1.456c-.067.582-.15 1.29-.25 2.125h-.706l.563-4.775c.03-.23.044-.447.044-.652 0-.505-.096-.89-.288-1.155-.193-.266-.497-.398-.912-.398-.28 0-.563.07-.848.213a3.342 3.342 0 0 0-.83.607 5.19 5.19 0 0 0-.753.955 7.236 7.236 0 0 0-.624 1.258l-.457 3.947h-.706zm9.555-.495c.284 0 .565-.08.843-.24a3.09 3.09 0 0 0 .791-.678c.25-.293.488-.646.711-1.058a9.64 9.64 0 0 0 .595-1.367l.377-3.037a2.962 2.962 0 0 0-.962-.15c-.335 0-.66.055-.975.168a3.59 3.59 0 0 0-.89.469c-.277.2-.532.437-.765.712a4.9 4.9 0 0 0-.998 1.941 4.505 4.505 0 0 0-.14 1.118c0 .67.115 1.19.342 1.564.229.373.585.558 1.07.558zm3.174.496h-.345c-.097 0-.162-.025-.2-.07a.244.244 0 0 1-.057-.163l.249-2.347c-.19.4-.4.763-.627 1.09a4.98 4.98 0 0 1-.728.845 3.162 3.162 0 0 1-.814.547c-.286.13-.58.194-.886.194-.315 0-.59-.06-.825-.183a1.644 1.644 0 0 1-.59-.522 2.463 2.463 0 0 1-.355-.817c-.08-.32-.12-.68-.12-1.079 0-.436.055-.861.164-1.279.11-.416.266-.814.47-1.187.201-.377.443-.72.723-1.036.281-.315.589-.587.928-.817.337-.23.698-.41 1.084-.54.385-.13.783-.194 1.193-.194.3 0 .58.025.84.079.26.052.518.142.773.273l-.877 7.206zm4.293-.481c.285 0 .57-.079.855-.237.285-.157.562-.38.829-.67.268-.29.518-.638.75-1.046a8.89 8.89 0 0 0 .62-1.353l.263-2.16c-.216-.39-.484-.665-.804-.825a2.2 2.2 0 0 0-.997-.24c-.316 0-.61.065-.882.192-.273.128-.52.3-.743.52-.222.22-.42.476-.593.766-.172.29-.318.596-.435.922a6.219 6.219 0 0 0-.271 1.004 5.631 5.631 0 0 0-.092.998c0 .67.126 1.191.381 1.567.255.375.628.562 1.119.562zm2.949.48c-.095 0-.161-.023-.2-.068a.248.248 0 0 1-.055-.165l.247-2.376a6.999 6.999 0 0 1-.656 1.106 5.266 5.266 0 0 1-.769.854c-.27.238-.553.422-.848.552a2.233 2.233 0 0 1-.901.194 1.87 1.87 0 0 1-.856-.187 1.72 1.72 0 0 1-.615-.532 2.495 2.495 0 0 1-.375-.834 4.297 4.297 0 0 1-.127-1.094c0-.379.04-.768.12-1.166a6.69 6.69 0 0 1 .341-1.154c.147-.372.328-.722.54-1.05a4.35 4.35 0 0 1 .724-.858 3.31 3.31 0 0 1 .885-.58c.32-.144.663-.215 1.029-.215.405 0 .777.088 1.118.267.34.176.621.443.84.797l.548-4.4h.691l-1.335 10.91h-.346zm5.284-.465c.434 0 .83-.113 1.189-.342a3.12 3.12 0 0 0 .919-.906 4.51 4.51 0 0 0 .59-1.298 5.53 5.53 0 0 0 .205-1.503c0-.8-.178-1.417-.533-1.852-.354-.434-.848-.651-1.478-.651-.29 0-.564.05-.817.153a2.472 2.472 0 0 0-.706.431c-.216.185-.41.404-.582.655a4.125 4.125 0 0 0-.435.83 5.33 5.33 0 0 0-.271.95 5.638 5.638 0 0 0-.093 1.028c0 .795.175 1.411.529 1.849.352.437.846.656 1.482.656m-.06.562c-.4 0-.764-.07-1.092-.21a2.305 2.305 0 0 1-.84-.607 2.799 2.799 0 0 1-.54-.963 4 4 0 0 1-.192-1.287c0-.604.09-1.185.27-1.742.18-.558.433-1.048.762-1.473a3.79 3.79 0 0 1 1.166-1.017 2.99 2.99 0 0 1 1.486-.379c.401 0 .764.072 1.093.214.327.143.607.345.84.608.232.262.412.583.54.963.127.38.191.806.191 1.275 0 .604-.09 1.184-.273 1.74a4.995 4.995 0 0 1-.762 1.472 3.81 3.81 0 0 1-1.163 1.025 2.97 2.97 0 0 1-1.486.38m4.923-.096l.9-7.484h.324c.173 0 .262.09.262.271l-.218 2.22c.34-.815.73-1.444 1.167-1.887.438-.442.905-.663 1.4-.663.206 0 .415.044.631.127l-.128.669a1.864 1.864 0 0 0-.646-.128c-.535 0-1.017.263-1.444.791-.428.527-.794 1.288-1.1 2.282l-.45 3.802h-.698z"/><g transform="translate(0 84.466)"><mask id="b" fill="#fff"><use xlink:href="#a"/></mask><path fill="#B2B2B1" d="M5.614 9.592a5.03 5.03 0 0 0 1.19-.125c.338-.081.66-.195.964-.34V7.154H6.41a.42.42 0 0 1-.308-.108.352.352 0 0 1-.113-.265V5.64h3.61v4.385a5.9 5.9 0 0 1-.86.522c-.297.147-.615.27-.952.363a7.274 7.274 0 0 1-1.085.214c-.385.048-.8.07-1.245.07-.792 0-1.52-.136-2.184-.411a5.167 5.167 0 0 1-1.726-1.147A5.208 5.208 0 0 1 .409 7.882 5.94 5.94 0 0 1 0 5.656c0-.814.134-1.563.399-2.243a5.076 5.076 0 0 1 1.13-1.754A5.051 5.051 0 0 1 3.302.519C3.997.25 4.78.115 5.644.115c.886 0 1.652.13 2.3.394A5.348 5.348 0 0 1 9.592 1.53l-.585.916c-.116.184-.268.277-.457.277a.672.672 0 0 1-.367-.12 36.97 36.97 0 0 0-.492-.285 3.27 3.27 0 0 0-.556-.248 4.615 4.615 0 0 0-1.558-.24c-.535 0-1.018.09-1.452.27-.432.18-.801.438-1.106.772-.306.336-.54.738-.706 1.208-.166.47-.248.995-.248 1.575 0 .624.088 1.18.263 1.667.175.488.42.9.736 1.235.315.334.69.59 1.125.768.436.177.911.266 1.426.266" mask="url(#b)"/></g><path fill="#B2B2B1" d="M13.074 87.85v4.888c0 .47.109.833.326 1.091.218.257.545.385.98.385.32 0 .62-.07.9-.212.281-.143.545-.34.796-.59V87.85h1.854v7.692h-1.134c-.24 0-.397-.114-.472-.338l-.128-.614a5.57 5.57 0 0 1-.495.438 2.981 2.981 0 0 1-1.168.556 3.11 3.11 0 0 1-.715.078c-.422 0-.793-.072-1.116-.214a2.235 2.235 0 0 1-.814-.603 2.624 2.624 0 0 1-.499-.926 3.886 3.886 0 0 1-.168-1.181V87.85h1.853z"/><mask id="d" fill="#fff"><use xlink:href="#c"/></mask><path fill="#B2B2B1" d="M20.031 95.542h1.854V87.85H20.03v7.692zm2.132-9.936c0 .16-.034.312-.099.45a1.225 1.225 0 0 1-.637.62 1.175 1.175 0 0 1-1.29-.251 1.223 1.223 0 0 1-.252-.369 1.151 1.151 0 0 1 0-.914 1.192 1.192 0 0 1 .623-.626 1.192 1.192 0 0 1 1.298.252 1.193 1.193 0 0 1 .357.838zm1.936 9.936h1.853V84.401H24.1zm3.947 0V84.4H29.9v4.282a3.91 3.91 0 0 1 .99-.69c.36-.175.784-.263 1.268-.263.422 0 .795.072 1.119.213.325.144.597.345.814.6.218.259.384.566.495.922.114.36.17.752.17 1.182v4.896h-1.854v-4.896c0-.47-.109-.833-.326-1.092-.219-.256-.546-.385-.98-.385-.32 0-.62.073-.9.217a3.239 3.239 0 0 0-.796.593v5.563h-1.854zm11.752-6.485c-.54 0-.963.153-1.268.457-.305.305-.5.737-.585 1.298h3.482c0-.24-.032-.468-.097-.68a1.592 1.592 0 0 0-.3-.559 1.432 1.432 0 0 0-.511-.378 1.742 1.742 0 0 0-.72-.138m-.039-1.327c.487 0 .932.077 1.341.231.407.155.76.382 1.055.68.295.297.525.662.69 1.093.165.434.247.928.247 1.482 0 .14-.005.256-.018.348a.563.563 0 0 1-.067.218.293.293 0 0 1-.132.113.585.585 0 0 1-.21.033h-4.758c.054.79.267 1.37.637 1.74.37.37.861.554 1.472.554.3 0 .558-.035.776-.105a3.71 3.71 0 0 0 .57-.232c.163-.084.305-.162.427-.232a.726.726 0 0 1 .358-.105.401.401 0 0 1 .338.173l.54.674a3.05 3.05 0 0 1-.69.603 3.844 3.844 0 0 1-.799.39c-.28.098-.562.167-.848.206-.289.04-.567.062-.838.062-.535 0-1.032-.09-1.493-.268a3.35 3.35 0 0 1-1.201-.787 3.73 3.73 0 0 1-.803-1.289c-.195-.513-.292-1.106-.292-1.781 0-.525.085-1.018.254-1.481.17-.463.414-.865.732-1.208a3.467 3.467 0 0 1 1.163-.813c.457-.2.975-.3 1.55-.3m4.84 7.813v-7.693h1.09c.188 0 .322.035.396.106.075.07.126.19.151.36l.112.93c.275-.475.598-.85.968-1.125s.785-.413 1.246-.413c.38 0 .695.088.946.262l-.24 1.387c-.016.09-.048.154-.099.192a.33.33 0 0 1-.202.056c-.076 0-.178-.018-.308-.052a2.03 2.03 0 0 0-.518-.052c-.385 0-.715.105-.99.317-.276.213-.508.525-.697.935v4.79H44.6zm6.132 0v-7.693h1.133c.24 0 .398.113.472.338l.12.57c.136-.15.277-.288.425-.412a2.563 2.563 0 0 1 1.013-.537 2.45 2.45 0 0 1 .633-.079c.487 0 .886.131 1.198.394.312.263.547.61.702 1.046.12-.256.27-.475.45-.656a2.42 2.42 0 0 1 .593-.445c.215-.116.444-.201.686-.256.243-.055.488-.083.732-.083.426 0 .803.066 1.133.195.332.131.608.321.833.57.226.25.397.556.515.916.117.36.176.772.176 1.236v4.896h-1.854v-4.896c0-.49-.107-.858-.322-1.105-.215-.248-.531-.372-.947-.372a1.3 1.3 0 0 0-.957.379 1.273 1.273 0 0 0-.288.461 1.81 1.81 0 0 0-.105.637v4.896h-1.862v-4.896c0-.514-.103-.89-.31-1.125-.207-.233-.514-.352-.92-.352-.265 0-.514.066-.747.2a2.492 2.492 0 0 0-.648.542v5.63h-1.854zm15.857-6.485c-.54 0-.963.153-1.268.457-.306.305-.5.737-.585 1.298h3.482c0-.24-.032-.468-.097-.68a1.594 1.594 0 0 0-.3-.559 1.429 1.429 0 0 0-.511-.378 1.742 1.742 0 0 0-.72-.138m-.039-1.327c.486 0 .932.077 1.341.231.407.155.76.382 1.054.68.296.297.526.662.69 1.093.166.434.248.928.248 1.482 0 .14-.007.256-.018.348a.58.58 0 0 1-.067.218.29.29 0 0 1-.133.113.583.583 0 0 1-.21.033H64.7c.054.79.267 1.37.638 1.74.37.37.861.554 1.47.554.302 0 .56-.035.777-.105.219-.07.408-.147.571-.232.162-.084.305-.162.427-.232a.723.723 0 0 1 .358-.105c.075 0 .14.015.195.045a.4.4 0 0 1 .141.128l.541.674a3.07 3.07 0 0 1-.69.603 3.828 3.828 0 0 1-.799.39 4.356 4.356 0 0 1-.848.206c-.288.04-.568.062-.837.062-.535 0-1.032-.09-1.494-.268a3.343 3.343 0 0 1-1.2-.787 3.73 3.73 0 0 1-.803-1.289c-.195-.513-.293-1.106-.293-1.781 0-.525.085-1.018.255-1.481.17-.463.414-.865.732-1.208a3.467 3.467 0 0 1 1.163-.813c.457-.2.975-.3 1.55-.3m13.658-1.057a.568.568 0 0 1-.191.232.487.487 0 0 1-.26.07.65.65 0 0 1-.338-.118 10.484 10.484 0 0 0-.443-.258 3.55 3.55 0 0 0-.596-.26 2.529 2.529 0 0 0-.806-.116c-.28 0-.525.033-.732.102a1.54 1.54 0 0 0-.526.281 1.12 1.12 0 0 0-.319.431c-.07.168-.105.351-.105.551 0 .254.071.468.213.638.144.17.332.314.568.435.235.119.503.227.803.322.3.095.607.197.92.302.312.109.619.235.919.377.3.142.568.322.802.54.235.216.425.483.567.797.142.315.213.698.213 1.149 0 .488-.082.947-.25 1.375-.168.428-.413.8-.735 1.116a3.457 3.457 0 0 1-1.183.75c-.466.182-.999.274-1.598.274-.345 0-.686-.034-1.021-.101a5.401 5.401 0 0 1-.964-.288 5.047 5.047 0 0 1-.863-.45 4.273 4.273 0 0 1-.718-.585l.586-.967a.738.738 0 0 1 .199-.177.486.486 0 0 1 .258-.07c.126 0 .261.05.406.152.145.103.317.217.513.343.198.124.431.238.698.34.27.103.59.154.965.154.576 0 1.02-.136 1.336-.41.316-.271.473-.662.473-1.172 0-.284-.07-.517-.214-.697a1.723 1.723 0 0 0-.566-.455 4.274 4.274 0 0 0-.803-.31c-.3-.085-.606-.177-.916-.277-.31-.1-.615-.22-.916-.361a2.964 2.964 0 0 1-.803-.547 2.495 2.495 0 0 1-.566-.843c-.143-.338-.214-.754-.214-1.25 0-.393.079-.778.237-1.154.156-.374.387-.706.69-.996.302-.29.674-.522 1.114-.699.44-.173.944-.262 1.509-.262.64 0 1.23.1 1.77.3.541.2 1.002.48 1.382.84l-.495.952zm2.251 8.87h1.853V87.85h-1.853v7.692zm2.132-9.936c0 .16-.034.312-.1.45a1.208 1.208 0 0 1-1.557.62 1.199 1.199 0 0 1-.622-.62 1.151 1.151 0 0 1 0-.914 1.192 1.192 0 0 1 .622-.626 1.192 1.192 0 0 1 1.299.252 1.178 1.178 0 0 1 .358.838zm1.935 9.936h1.853V84.401H86.53zm7.806 0h-1.682l-3.063-7.693h1.54a.58.58 0 0 1 .34.098.504.504 0 0 1 .193.248l1.485 4.107c.085.24.156.475.214.706.057.23.109.46.154.69.045-.23.096-.46.154-.69a6.61 6.61 0 0 1 .222-.706l1.523-4.107a.495.495 0 0 1 .188-.248.536.536 0 0 1 .322-.098h1.464l-3.054 7.693zm7.121-6.485c-.54 0-.963.153-1.268.457-.305.305-.5.737-.585 1.298h3.482c0-.24-.032-.468-.097-.68a1.607 1.607 0 0 0-.3-.559 1.432 1.432 0 0 0-.511-.378 1.742 1.742 0 0 0-.72-.138m-.039-1.327c.486 0 .932.077 1.341.231.407.155.76.382 1.055.68.295.297.525.662.689 1.093.166.434.248.928.248 1.482 0 .14-.005.256-.018.348a.563.563 0 0 1-.067.218.29.29 0 0 1-.133.113.58.58 0 0 1-.21.033h-4.758c.055.79.268 1.37.638 1.74.37.37.861.554 1.472.554.3 0 .558-.035.775-.105.219-.07.408-.147.571-.232.162-.084.305-.162.427-.232a.723.723 0 0 1 .358-.105.401.401 0 0 1 .338.173l.54.674a3.07 3.07 0 0 1-.69.603 3.844 3.844 0 0 1-.799.39c-.28.098-.562.167-.848.206a6.12 6.12 0 0 1-.838.062c-.535 0-1.032-.09-1.493-.268a3.343 3.343 0 0 1-1.201-.787 3.73 3.73 0 0 1-.803-1.289c-.195-.513-.292-1.106-.292-1.781 0-.525.084-1.018.254-1.481.17-.463.415-.865.732-1.208a3.467 3.467 0 0 1 1.163-.813c.457-.2.975-.3 1.55-.3m4.96 7.813h1.854V87.85h-1.854v7.692zm2.132-9.936c0 .16-.034.312-.098.45a1.228 1.228 0 0 1-.639.62 1.166 1.166 0 0 1-.918 0 1.192 1.192 0 0 1-.623-.62 1.168 1.168 0 0 1 0-.914 1.192 1.192 0 0 1 .623-.626 1.184 1.184 0 0 1 .918 0 1.196 1.196 0 0 1 .639.627c.064.145.098.3.098.463zm1.816 9.936v-7.693h1.089c.19 0 .322.035.396.106.076.07.126.19.151.36l.112.93c.275-.475.598-.85.968-1.125s.785-.413 1.247-.413c.38 0 .695.088.945.262l-.24 1.387c-.016.09-.048.154-.098.192a.335.335 0 0 1-.202.056c-.075 0-.178-.018-.308-.052a2.025 2.025 0 0 0-.519-.052c-.385 0-.714.105-.99.317-.275.213-.508.525-.697.935v4.79h-1.854zm8.345-1.155c.19 0 .364-.016.525-.051.16-.034.312-.087.454-.155.142-.068.28-.154.413-.256.132-.1.266-.219.402-.357V92.28c-.54 0-.993.033-1.355.102a3.605 3.605 0 0 0-.874.26c-.22.108-.378.23-.47.37a.823.823 0 0 0-.139.462c0 .327.097.561.29.702.192.141.443.211.754.211zm3.602 1.154h-.832a.9.9 0 0 1-.414-.077c-.1-.053-.174-.16-.225-.32l-.165-.546a6.489 6.489 0 0 1-.574.46 3.583 3.583 0 0 1-.581.335c-.2.09-.413.156-.64.202a3.865 3.865 0 0 1-.749.067 2.92 2.92 0 0 1-.9-.131 1.94 1.94 0 0 1-.71-.396 1.776 1.776 0 0 1-.461-.653 2.326 2.326 0 0 1-.165-.912c0-.29.075-.577.228-.86.153-.283.407-.54.763-.768.354-.228.828-.417 1.418-.567.59-.15 1.323-.226 2.2-.226v-.454c0-.52-.11-.902-.328-1.152-.217-.25-.534-.374-.95-.374-.3 0-.55.035-.75.106-.2.07-.374.148-.521.235a19.28 19.28 0 0 1-.409.236.837.837 0 0 1-.414.105.537.537 0 0 1-.322-.097.769.769 0 0 1-.218-.24l-.337-.592c.885-.81 1.954-1.216 3.204-1.216.45 0 .852.074 1.205.223.353.147.652.352.896.614.246.263.432.576.56.94.127.366.19.765.19 1.201v4.857z" mask="url(#d)"/><path fill="#231F20" d="M29.131 46.628c2.259-1.865 2.802-5.557 3.19-8.242.62-4.278 1.57-9.88-1.458-13.436-3.164-3.717-9.153-1.888-12.779.094C12.04 28.346 7.54 35.074 7.547 42.029c.006 6.59 4.875 13.166 11.112 15.157 3.538 1.13 7.535-.27 9.755-3.16 3.198-4.163 3.97-10.18 4.559-15.228.27-2.31.43-4.632.577-6.952.027-.435-.114-3.067.346-3.29l-1.417.38c.982.024 1.89 7.918 2.004 8.623 1.154 7.075 1.908 14.218 2.406 21.365.587 8.39.755 16.843.1 25.234-.29 3.715-.792 7.417-1.602 11.055a44.475 44.475 0 0 1-1.419 4.965c-.14.402-.332 1.542-.837 1.746l1.418-.381c-1.359.168-1.405-11.054-1.418-11.916-.116-7.703.253-15.486 1.448-23.104.492-3.142 1.151-6.314 2.36-9.266.899-2.196 2.138-3.159 3.822-4.65 2.078-1.845 3.166-4.854 4.056-7.398 1.328-3.782 2.145-7.747 2.792-11.695 1.298-7.932 1.954-16.36.725-24.344-.61-3.945-2.067-8.596-6.928-7.309-4.693 1.242-6.905 5.383-7.591 9.98-1.46 9.762 4.048 19.622 9.604 27.167 2.736 3.716 6.431 6.885 8.592 11 .839 1.598 1.351 3.497.697 5.247-.554 1.474-1.968 2.414-3.352 3.016-.252.107-.51.2-.77.289a14.99 14.99 0 0 1-1.736.314c-1.06.14-2.128.181-3.193.178-3.317-.013-7.538-.443-10.257-2.554-3.116-2.421 1.742-4.814 3.654-5.603 5.18-2.13 12.267-4.372 16.755.176 2.415 2.447 3.502 6.245 3.812 9.592.098 1.067 2.776.128 3.289-.057 2.059-.743 2.726-3.947 3.146-5.747.307-1.307.123-5.958 1.662-6.755l-1.393.374c2.03-.417 3.862 10.689 4.17 12.3.366 1.907 4.054 2.444 5.427 2.112 6.165-1.491 9.003-7.923 11.292-13.284 3.737-8.752 5.666-17.802 5.293-27.324-.198-5.057-2.562-27.063-12.368-21.34-2.213 1.294-3.417 4.183-4.325 6.428-1.916 4.737-2.882 9.874-3.713 14.891-1.305 7.862-2.497 16.296 4.207 22.054 7.994 6.866 21.145 6.392 30.942 5.243 3.011-.353 5.987-.89 8.905-1.715 3.637-1.027-4.563-4.447-2.421-5.47l-1.21.33c.35-.09 3.267.117 2.856.388-.875.252-1.6.382-2.327.505-4.377.753-8.806 1.246-13.223 1.705-11.284 1.174-22.76 2.103-34.11 1.588-2.126-.098-14.867-.628-10.072-5.337 3.275-3.215 8.364-4.986 12.503-6.698 5.066-2.092 10.545-3.943 16.104-3.601 1.588.097 3.973.46 4.88 1.983.073.124 1.356-.483 1.418-.378-1.046-1.76-3.888-1.956-5.674-2.024-3.385-.127-6.779.694-10.017 1.597-6.572 1.833-13.865 4.481-19.47 8.54-1.632 1.182-3.497 3.225-1.028 4.589 2.994 1.652 7.207 1.593 10.514 1.733 11.374.48 22.876-.493 34.182-1.68 1.023-.106 17.964-1.63 17.844-3.038-.062-.72-3.225-.194-3.882-.018-2.59.695.992 2.998 1.958 3.912.235.222 1.258 1.121.67 1.438-.172.092-.367.148-.551.206.281-.09-.084.016-.746.156-2.427.518-4.897.845-7.364 1.092-11.106 1.114-28.82.993-33.607-11.563-1.557-4.081-.94-8.441-.36-12.644.764-5.53 1.781-11.086 3.559-16.39.908-2.71 2.095-5.714 4.269-7.676.32-.288.681-.52 1.06-.72-.01.012.165.025.339.035.825.054 1.574.504 2.203 1.006 4.16 3.323 5.362 10.442 6.088 15.33 1.184 7.974.71 16.296-1.457 24.06-1.489 5.345-3.611 10.723-6.415 15.52-1.427 2.442-3.291 5.053-5.933 6.28a2.055 2.055 0 0 1-.585.076c-.35.012-.7-.04-1.043-.112-.604-.125-1.17-.405-1.683-.74a5.562 5.562 0 0 1-1.51-1.425c-.27-.384-.273-1.349-.368-1.8-.286-1.348-.6-2.69-.938-4.025-.366-1.444-.993-5.876-2.684-6.48-1.595-.572-2.325 1.499-2.533 2.515-.596 2.92-.5 9.152-4.08 10.443l.895-.247c-.001.003.174-.04.348-.085-1.389.246-1.47-.24-1.625-1.358-.382-2.756-1.3-5.492-2.937-7.76-4.317-5.98-12.514-2.954-18.283-1.078-1.716.557-8.451 2.682-6.378 5.69 1.73 2.51 6.451 2.938 9.165 3.148 5.893.453 17.093-1.369 12.933-9.732-2.05-4.124-5.849-7.36-8.592-11-3.523-4.675-6.482-9.839-8.309-15.41-1.98-6.045-2.63-14.03 1.842-19.193a8.013 8.013 0 0 1 2.323-1.835c.914-.482-.063-.148.64-.216.474-.048.95.01 1.411.11 2.068.454 2.927 2.55 3.489 4.37 2.196 7.113 1.413 15.485.6 22.75-.807 7.23-2.003 15.495-5.901 21.801-1.134 1.835-3.036 2.658-4.231 4.378-1.563 2.248-2.248 5.145-2.837 7.772-1.676 7.47-2.057 15.285-2.154 22.916-.043 3.32.013 6.646.231 9.959.116 1.777.139 3.821.804 5.501.27.687 1.62.317 1.987-.139.75-.932 1.02-2.642 1.353-3.766.611-2.059 1.041-4.168 1.405-6.283 1.625-9.438 1.536-19.187 1.062-28.72a233.737 233.737 0 0 0-2.651-25.444c-.383-2.387-.79-4.786-1.397-7.129-.351-1.358-.318-1.587-1.677-1.215-.973.268-.644 2.578-.696 3.39-.187 2.994-.422 5.981-.83 8.954-.73 5.311-2.018 13.543-7.65 15.95-1.09.467-2.92-.114-3.966-.45-2.213-.704-4.044-1.998-5.656-3.636-2.916-2.966-4.808-6.793-5.051-10.961-.414-7.034 4.367-13.727 10.193-17.228.642-.388 1.32-.714 2.006-1.015a14.93 14.93 0 0 1 1.316-.488c-.979.322.324-.039.582-.077a8.09 8.09 0 0 1 3.931.368c3.477 1.236 4.378 4.885 4.356 8.15-.028 4.347-.208 9.226-2.162 13.211-.426.87-1.018 1.664-1.794 2.247-.366.285-.674.274-.973.243a3.18 3.18 0 0 1-1.24-.396c-.3-.178-1.131.55-1.417.379 1.547.92 4.061.22 5.355-.85z" mask="url(#d)"/></g></svg>