<svg xmlns="http://www.w3.org/2000/svg" xmlns:xlink="http://www.w3.org/1999/xlink" width="170" height="63" viewBox="0 0 170 63"><defs><path id="a" d="M0 62.577h168.808V0H0z"/></defs><g fill="none" fill-rule="evenodd" transform="translate(.689 .19)"><path fill="#B2B2B1" d="M67.084 43.953c.287 0 .573-.079.858-.237.287-.157.563-.382.83-.672.27-.29.52-.639.754-1.047.232-.408.439-.86.62-1.356l.262-2.162c-.215-.39-.483-.666-.804-.827-.32-.16-.654-.24-1-.24a2.07 2.07 0 0 0-.884.192 2.652 2.652 0 0 0-.745.521c-.222.22-.42.476-.594.767a5.25 5.25 0 0 0-.436.924 6.124 6.124 0 0 0-.365 2.005c0 .67.128 1.193.384 1.57.255.374.63.562 1.12.562zm2.957.48c-.097 0-.162-.022-.2-.067a.25.25 0 0 1-.057-.165l.249-2.38a7.009 7.009 0 0 1-.658 1.107c-.243.333-.5.618-.77.856a3.313 3.313 0 0 1-.852.553 2.23 2.23 0 0 1-.901.194 1.87 1.87 0 0 1-.857-.188 1.72 1.72 0 0 1-.618-.532 2.498 2.498 0 0 1-.376-.835 4.301 4.301 0 0 1-.127-1.096c0-.38.04-.77.12-1.168a6.76 6.76 0 0 1 .342-1.156 5.85 5.85 0 0 1 .542-1.05 4.3 4.3 0 0 1 .725-.86c.27-.246.566-.44.887-.582a2.493 2.493 0 0 1 1.032-.215c.405 0 .778.088 1.12.267.341.177.622.444.842.799l.55-4.408h.692l-1.339 10.927h-.346zm5.091-10.047a.6.6 0 0 1-.052.251.707.707 0 0 1-.35.35.572.572 0 0 1-.477 0 .72.72 0 0 1-.34-.35.62.62 0 0 1 0-.506.745.745 0 0 1 .141-.214.628.628 0 0 1 .2-.147.557.557 0 0 1 .476 0 .678.678 0 0 1 .402.616zm-.548 2.575l-.91 7.473h-.701l.91-7.473h.701zm1.616 7.473l.903-7.496h.323c.175 0 .263.09.263.272l-.217 2.223c.34-.817.73-1.446 1.17-1.89.438-.443.906-.664 1.402-.664.206 0 .416.044.632.127l-.127.67a1.874 1.874 0 0 0-.648-.128c-.536 0-1.02.264-1.448.792-.428.528-.796 1.29-1.102 2.286l-.451 3.808h-.7zm8.319-7.052c-.401 0-.763.086-1.086.256-.324.17-.61.396-.859.68a3.946 3.946 0 0 0-.623.983c-.17.373-.292.762-.372 1.168a19.28 19.28 0 0 0 1.647-.245c.462-.092.853-.19 1.173-.292.32-.102.58-.215.78-.335.196-.12.35-.243.46-.372a1.01 1.01 0 0 0 .223-.393 1.55 1.55 0 0 0 .057-.42.946.946 0 0 0-.309-.678 1.418 1.418 0 0 0-.432-.251 1.91 1.91 0 0 0-.66-.101m2.032 1.007c0 .205-.027.4-.082.586a1.45 1.45 0 0 1-.294.525c-.14.165-.331.322-.571.47-.242.147-.55.282-.926.405a10.62 10.62 0 0 1-1.346.33 24.75 24.75 0 0 1-1.835.26c-.01.105-.018.208-.024.311a8.008 8.008 0 0 0-.007.303c0 .747.17 1.33.508 1.75.339.422.85.63 1.53.63.266 0 .507-.027.719-.084a2.73 2.73 0 0 0 .572-.222c.167-.09.315-.185.444-.286.128-.1.241-.195.342-.285.1-.09.186-.164.26-.222.073-.058.138-.086.199-.086.06 0 .113.025.158.076l.167.194c-.248.26-.487.484-.72.672a3.903 3.903 0 0 1-.707.462c-.238.12-.485.21-.741.267a3.739 3.739 0 0 1-.82.085 2.82 2.82 0 0 1-1.109-.206 2.194 2.194 0 0 1-.816-.585 2.535 2.535 0 0 1-.504-.924 4.026 4.026 0 0 1-.174-1.22 5.854 5.854 0 0 1 .447-2.23 5.17 5.17 0 0 1 .55-.984c.218-.306.468-.571.748-.795.28-.226.593-.404.933-.535.34-.129.71-.195 1.106-.195.366 0 .675.053.93.154.253.104.458.23.616.383a1.415 1.415 0 0 1 .447.996m1.745 4.791c0-.03.002-.068.004-.114.002-.045.008-.112.015-.202.006-.09.02-.206.037-.349.018-.143.04-.325.065-.545l.511-4.242h-.984c-.101 0-.152-.047-.152-.143l.038-.308 1.18-.09.496-2.673a.239.239 0 0 1 .069-.12.177.177 0 0 1 .128-.054h.346l-.354 2.855h2.166l-.06.533h-2.166l-.519 4.216-.061.501-.036.319a2.497 2.497 0 0 0-.023.274c0 .324.076.56.23.705a.818.818 0 0 0 .59.217c.164 0 .312-.026.44-.078.128-.053.24-.11.334-.174a1.85 1.85 0 0 0 .234-.173c.06-.052.105-.078.135-.078.031 0 .053.006.067.02.016.01.03.03.046.055l.134.315a2.29 2.29 0 0 1-.728.513 2.07 2.07 0 0 1-.859.194c-.41 0-.733-.113-.966-.339-.232-.225-.352-.57-.357-1.035m6.898.788a2.17 2.17 0 0 0 1.192-.343c.359-.226.664-.53.921-.907a4.45 4.45 0 0 0 .59-1.3 5.5 5.5 0 0 0 .207-1.505c0-.801-.178-1.42-.534-1.855-.356-.435-.85-.653-1.481-.653a2.19 2.19 0 0 0-.82.154 2.473 2.473 0 0 0-.707.432c-.217.185-.41.404-.584.656a4.13 4.13 0 0 0-.436.83 5.42 5.42 0 0 0-.272.953 5.73 5.73 0 0 0-.092 1.029c0 .797.176 1.413.53 1.852.353.438.848.657 1.486.657m-.06.563c-.402 0-.767-.07-1.095-.211a2.31 2.31 0 0 1-.843-.607 2.803 2.803 0 0 1-.541-.965 4.003 4.003 0 0 1-.193-1.289c0-.605.09-1.187.272-1.745.18-.558.434-1.05.764-1.475a3.787 3.787 0 0 1 1.168-1.018c.452-.253.948-.38 1.49-.38.401 0 .765.072 1.094.215.329.142.61.344.842.608.234.263.414.584.542.964.128.381.192.808.192 1.278a5.48 5.48 0 0 1-.275 1.741 4.977 4.977 0 0 1-.762 1.476c-.327.428-.714.77-1.166 1.026a2.983 2.983 0 0 1-1.49.382m4.935-.097l.903-7.496h.323c.174 0 .262.09.262.272l-.217 2.223c.34-.817.731-1.446 1.17-1.89.438-.443.906-.664 1.402-.664.206 0 .417.044.633.127l-.129.67a1.87 1.87 0 0 0-.647-.128c-.536 0-1.019.264-1.448.792-.428.528-.796 1.29-1.101 2.286l-.452 3.808h-.7zM47.889 59.895a.38.38 0 0 1 .286.129l.797.863a4.376 4.376 0 0 1-1.63 1.254c-.643.29-1.417.435-2.32.435-.807 0-1.533-.138-2.178-.413a4.779 4.779 0 0 1-1.65-1.149 5.038 5.038 0 0 1-1.05-1.757 6.579 6.579 0 0 1-.365-2.23c0-.815.136-1.563.407-2.241a5.14 5.14 0 0 1 1.143-1.754 5.183 5.183 0 0 1 1.764-1.145 6.09 6.09 0 0 1 2.268-.41c.806 0 1.514.13 2.118.387a4.95 4.95 0 0 1 1.553 1.025l-.677.939a.609.609 0 0 1-.155.157.428.428 0 0 1-.258.068.598.598 0 0 1-.355-.135 4.469 4.469 0 0 0-.457-.293 3.833 3.833 0 0 0-.705-.293c-.283-.09-.643-.136-1.078-.136-.513 0-.983.09-1.411.267-.43.18-.798.432-1.106.763a3.46 3.46 0 0 0-.721 1.205 4.602 4.602 0 0 0-.26 1.597c0 .61.085 1.153.26 1.629.172.475.406.875.702 1.201a2.99 2.99 0 0 0 1.044.746c.403.173.834.26 1.295.26.277 0 .526-.016.75-.046a3.11 3.11 0 0 0 .616-.142 2.862 2.862 0 0 0 1.034-.631.718.718 0 0 1 .157-.108.413.413 0 0 1 .182-.042M52.83 61.3c.19 0 .366-.017.526-.052a2.06 2.06 0 0 0 .456-.155c.142-.069.28-.154.413-.256.133-.1.268-.22.403-.358v-1.29c-.541 0-.994.033-1.358.102a3.616 3.616 0 0 0-.876.26c-.221.109-.378.23-.47.372a.824.824 0 0 0-.14.462c0 .328.096.562.29.703.193.141.445.211.757.211zm3.61 1.155h-.833a.902.902 0 0 1-.415-.077c-.1-.053-.176-.16-.226-.32l-.165-.548a6.51 6.51 0 0 1-.576.462 3.584 3.584 0 0 1-.582.335 3 3 0 0 1-.64.202 3.895 3.895 0 0 1-.752.067c-.326 0-.627-.043-.902-.131a1.933 1.933 0 0 1-.711-.397 1.779 1.779 0 0 1-.463-.654 2.328 2.328 0 0 1-.165-.913c0-.291.076-.578.229-.861.152-.284.407-.54.763-.77.356-.228.831-.417 1.422-.568.59-.15 1.325-.226 2.204-.226V57.6c0-.52-.109-.903-.327-1.153-.219-.25-.535-.375-.953-.375-.3 0-.551.035-.752.106-.2.07-.374.149-.521.236-.15.088-.285.166-.41.236a.84.84 0 0 1-.414.105.54.54 0 0 1-.324-.097.78.78 0 0 1-.218-.24l-.338-.594c.886-.81 1.958-1.217 3.21-1.217.452 0 .854.074 1.21.223.353.147.651.352.898.615.245.264.433.576.56.942.128.366.192.765.192 1.202v4.865zm1.828.001V54.75h1.092c.19 0 .323.035.397.106.076.07.126.19.152.36l.113.931c.275-.475.598-.85.97-1.126a2.04 2.04 0 0 1 1.248-.414c.382 0 .698.089.949.263l-.24 1.389c-.017.09-.05.154-.1.192a.333.333 0 0 1-.202.057c-.076 0-.18-.019-.309-.053a2.04 2.04 0 0 0-.52-.051c-.386 0-.716.105-.992.317-.276.213-.51.526-.7.937v4.797h-1.858z"/><mask id="b" fill="#fff"><use xlink:href="#a"/></mask><path fill="#B2B2B1" d="M64.534 62.456h1.857V51.297h-1.857zm7.251-1.313c.642 0 1.116-.217 1.426-.647.308-.43.462-1.061.462-1.892s-.154-1.464-.462-1.9c-.31-.436-.784-.652-1.426-.652-.653 0-1.132.217-1.443.656-.312.438-.468 1.07-.468 1.896 0 .825.156 1.456.468 1.889.31.432.79.65 1.443.65m0-6.512c.577 0 1.1.093 1.568.278.47.185.87.448 1.202.789.33.34.585.756.766 1.247.18.49.271 1.038.271 1.643 0 .612-.09 1.162-.27 1.652-.182.492-.437.91-.767 1.254a3.327 3.327 0 0 1-1.202.797 4.24 4.24 0 0 1-1.568.279c-.577 0-1.1-.094-1.571-.279a3.333 3.333 0 0 1-1.208-.797 3.549 3.549 0 0 1-.774-1.254 4.676 4.676 0 0 1-.276-1.652c0-.605.092-1.153.276-1.643.182-.491.44-.907.774-1.247a3.379 3.379 0 0 1 1.208-.789 4.253 4.253 0 0 1 1.571-.278m9.838 1.622a.498.498 0 0 1-.156.17.422.422 0 0 1-.212.048.662.662 0 0 1-.29-.076c-.102-.048-.22-.106-.356-.168a3.3 3.3 0 0 0-.463-.169 2.202 2.202 0 0 0-.612-.075c-.367 0-.655.078-.866.233a.724.724 0 0 0-.316.609c0 .165.054.303.162.416.107.112.25.211.428.297.18.084.38.16.606.229.226.067.457.142.693.22.234.082.466.173.691.275.225.103.428.233.606.39.179.158.32.347.43.568.106.22.161.485.161.795 0 .37-.069.712-.204 1.027a2.246 2.246 0 0 1-.595.81c-.26.227-.583.406-.966.533a4.188 4.188 0 0 1-1.32.191c-.265 0-.525-.024-.778-.07a4.632 4.632 0 0 1-.73-.2 4.084 4.084 0 0 1-.647-.3 3.076 3.076 0 0 1-.522-.376l.428-.705a.611.611 0 0 1 .196-.197.56.56 0 0 1 .285-.066.6.6 0 0 1 .328.097c.103.065.222.135.357.21.136.075.294.145.478.21.182.067.414.099.695.099.221 0 .41-.027.567-.08.16-.052.29-.12.393-.206a.787.787 0 0 0 .225-.297.901.901 0 0 0 .071-.349.617.617 0 0 0-.161-.443 1.424 1.424 0 0 0-.43-.301 4.051 4.051 0 0 0-.607-.227 19.86 19.86 0 0 1-.701-.224 6.188 6.188 0 0 1-.7-.282 2.348 2.348 0 0 1-.608-.408 1.84 1.84 0 0 1-.43-.609 2.126 2.126 0 0 1-.161-.87c0-.316.063-.616.187-.902a2.11 2.11 0 0 1 .554-.747c.243-.212.546-.382.909-.51a3.819 3.819 0 0 1 1.261-.192c.532 0 1.016.089 1.452.263.436.175.8.406 1.09.691l-.422.668zm11.864-4.656v1.607h-4.821v3.215h4.069v1.614h-4.07v4.423h-2.038V51.597zm4.227 4.364c-.542 0-.966.153-1.271.458-.307.305-.501.738-.586 1.3h3.49c0-.24-.033-.469-.098-.681a1.61 1.61 0 0 0-.3-.56 1.444 1.444 0 0 0-.513-.379 1.747 1.747 0 0 0-.722-.138m-.037-1.33c.486 0 .933.078 1.343.232.408.156.76.383 1.056.68.296.299.527.664.692 1.096a4.135 4.135 0 0 1 .23 1.833.58.58 0 0 1-.067.218.294.294 0 0 1-.133.114.594.594 0 0 1-.21.033h-4.769c.054.79.267 1.371.639 1.742.371.37.863.555 1.475.555.3 0 .56-.035.777-.105.22-.07.409-.148.572-.232.163-.085.307-.162.43-.233a.722.722 0 0 1 .357-.105.401.401 0 0 1 .338.173l.541.675c-.206.24-.435.442-.692.604a3.814 3.814 0 0 1-.8.39 4.335 4.335 0 0 1-.85.208c-.289.04-.57.06-.84.06a4.114 4.114 0 0 1-1.495-.267 3.354 3.354 0 0 1-1.205-.788 3.735 3.735 0 0 1-.805-1.291c-.194-.514-.293-1.109-.293-1.785 0-.525.085-1.019.255-1.483a3.63 3.63 0 0 1 .734-1.21c.32-.341.707-.613 1.166-.814.46-.2.977-.3 1.554-.3m4.971 7.825h1.858V51.297h-1.858zm4.077 0h1.858v-7.704h-1.858v7.704zm3.588-10.979l-1.858 1.96a.847.847 0 0 1-.274.206.878.878 0 0 1-.342.057h-1.114l1.068-1.825a.884.884 0 0 1 .264-.297c.099-.067.25-.1.451-.1h1.805zm5.792 4.903a.945.945 0 0 1-.162.167.377.377 0 0 1-.228.059.51.51 0 0 1-.28-.086 10.51 10.51 0 0 0-.324-.196 2.495 2.495 0 0 0-.445-.195 2.115 2.115 0 0 0-.645-.086c-.326 0-.612.06-.857.176-.246.118-.45.288-.614.507-.162.22-.284.487-.364.8-.08.314-.12.667-.12 1.062 0 .41.044.777.131 1.097.088.32.215.59.38.808.165.217.365.382.602.495.235.112.502.169.797.169.297 0 .535-.037.719-.109.183-.073.337-.153.462-.24.126-.087.235-.167.327-.24a.491.491 0 0 1 .312-.11c.151 0 .263.058.339.173l.534.676a3.35 3.35 0 0 1-.67.604 3.6 3.6 0 0 1-.748.391 3.829 3.829 0 0 1-.801.207c-.276.04-.55.06-.82.06-.476 0-.925-.089-1.346-.267a3.17 3.17 0 0 1-1.103-.777 3.755 3.755 0 0 1-.744-1.25c-.183-.494-.274-1.055-.274-1.687 0-.565.081-1.09.245-1.572.162-.483.401-.9.718-1.254a3.28 3.28 0 0 1 1.172-.83c.467-.2 1.003-.301 1.61-.301.578 0 1.082.092 1.517.278.433.185.822.45 1.168.796l-.488.675zm1.873 6.076h1.857v-7.704h-1.857v7.704zm2.136-9.951c0 .16-.034.312-.098.45a1.231 1.231 0 0 1-.64.62 1.178 1.178 0 0 1-1.294-.25 1.24 1.24 0 0 1-.251-.37 1.152 1.152 0 0 1 0-.915c.063-.145.147-.27.25-.374a1.24 1.24 0 0 1 .374-.253 1.195 1.195 0 0 1 1.302.253c.107.104.193.229.26.374.064.146.097.3.097.465zm5.116 8.638c.64 0 1.115-.217 1.425-.647.307-.43.462-1.061.462-1.892s-.155-1.464-.462-1.9c-.31-.436-.785-.652-1.426-.652-.653 0-1.133.217-1.444.656-.312.438-.467 1.07-.467 1.896 0 .825.155 1.456.467 1.889.31.432.791.65 1.444.65m0-6.512c.576 0 1.099.093 1.568.278.469.185.869.448 1.2.789.331.34.586.756.767 1.247.18.49.27 1.038.27 1.643 0 .612-.09 1.162-.27 1.652a3.56 3.56 0 0 1-.767 1.254 3.331 3.331 0 0 1-1.2.797 4.248 4.248 0 0 1-1.568.279 4.269 4.269 0 0 1-1.571-.279 3.333 3.333 0 0 1-1.208-.797 3.535 3.535 0 0 1-.774-1.254 4.654 4.654 0 0 1-.277-1.652c0-.605.092-1.153.277-1.643.181-.491.44-.907.774-1.247a3.379 3.379 0 0 1 1.208-.789 4.25 4.25 0 0 1 1.571-.278" mask="url(#b)"/><g fill="#000" mask="url(#b)"><path d="M141.658 9.98c-.445.476-.445 2.173 0 2.653.711.12.641-.54 1.476-.295.023-1.303-.05-2.506-1.476-2.357m26.56 2.357c.573-.57-.31-1.187-.294-2.062-1.762-.373-2.349 1.628-1.77 2.65 1.137-.059.792-1.389 2.064-.588m-30.691 9.722c-1.844 1.747-5.095.113-7.379-.296-2.084-.96-1.627-4.465-4.132-5.007 2.076 7.678-8.57 8.087-10.623 3.534.223-.462.936-.44.884-1.178-.732-.385-1.226.863-1.476 0 .009-2.45-.134-5.045 1.77-5.598.21 1.167.02 2.73 1.181 2.946.752-1.997.107-4.965-1.772-5.303-2.606 1.142-3.082 6.505-2.36 9.133-4.256 1.449-11.63-.217-14.755 2.357 4.663.126 11.292-.305 15.344-1.768 1.757 3.717 11.769 4.318 13.283 0 2.011 3.399 10.048 1.821 12.1 3.536-1.13-2.017.316-6.601-1.477-7.955-1.44.708-.868 4.031-.588 5.6zm30.398-1.473c-1.898.626-2.471 1.632-4.427 1.473-2.567-.21-3.073-2.576-4.724-3.831-.71 6.833-8.948 4.187-13.28 2.358.19 2.17 5.706 3.674 9.15 3.241 2.236-.284 3.345-1.691 4.72-2.357 1.334 1.276 4.942 2.565 7.084 1.177 1.05.524.853 2.29 2.36 2.358v-1.178c-1.224-.155-.098-2.653-.883-3.241M29.216 24.416C24.95 15 33.158 2.568 41.02 1.14c4.736-.859 7.167 2.54 6.2 7.66-1.496 7.908-11.89 12.066-18.003 15.616M48.4 7.623c.328-2.615-.251-4.055-1.178-5.33l.002-.002a5.164 5.164 0 0 0-.994-1.222l-.193-.224-.096.002c-2.53-1.899-5.9-.012-5.9-.012h.013c-8.777 3.644-16.12 13.88-12.017 24.463-3.59 1.845-7.823 4.278-12.1 6.19-3.934 1.759-9.613 4.37-14.166 1.767-.271-1.253 1.948-.02 1.77-1.178-.929-.717-3.064-.125-3.54.589v.296c.414 1.45 1.882 1.85 2.95 2.649h4.723c8.059-1.971 13.81-6.247 20.954-9.132 1.113 1.06 3.447 3.675 5.311 2.061-1.798-.462-3.467-1.056-3.836-2.945 5.783-3.988 17.21-9.287 18.297-17.972m43.676 7.66c.497-4.491 2.886-9.88-.295-12.67-.98 1.251-1.927 3.2-1.181 5.303 1.153.07.342-1.82 1.181-2.061.21 3.1.018 8.813-2.36 9.428 1.645 2.194-.035 4.671-1.18 6.777-5.969.442-13.659-.34-19.478-.591-.605.477.013 2.174-.59 2.653-5.496 1.012-15.75 3.316-19.183-1.18 3.03-.51 8.134-1.812 11.508-.59 1.464.533 1.518 2.04 2.953 2.064-.11-5.242-12.913-3.931-16.232-1.474 3.048 6.01 15.558 3.44 21.837 2.064.774-.604.615-2.138 1.772-2.355 4.9 1.23 12.236.106 16.527 1.175-.686 1.674-1.676 3.04-1.771 5.305 5.794-.844 3.033-8.41 6.197-11.786 1.092.186 1.757.8 3.245.59-.363-1.501-2.85-.884-2.95-2.652"/></g></g></svg>