<svg xmlns="http://www.w3.org/2000/svg" width="341" height="52" viewBox="0 0 341 52"><g fill="none" fill-rule="evenodd"><path fill="#ED4848" d="M0 17.224l25.642 17.222L0 51.67h64.293V17.224z"/><path fill="#D13B3B" d="M32.146 0v34.446L64.293 51.67V17.223z"/><path fill="#ED4848" d="M276.631 17.224V51.67h64.293l-25.642-17.224 25.642-17.222z"/><path fill="#D13B3B" d="M308.778 0l-32.147 17.223V51.67l32.147-17.223z"/><path fill="#ED4848" d="M32.146 34.446h276.632V0H32.146z"/><path fill="#FFF" d="M59.863 17.905l2.714.82c-.183.762-.47 1.397-.862 1.908-.392.51-.878.895-1.46 1.155-.58.26-1.32.39-2.217.39-1.09 0-1.98-.159-2.67-.475-.69-.317-1.286-.874-1.787-1.672-.502-.797-.752-1.818-.752-3.062 0-1.66.44-2.934 1.322-3.825.882-.89 2.13-1.336 3.743-1.336 1.262 0 2.255.255 2.977.765s1.259 1.295 1.61 2.352l-2.734.608c-.096-.305-.196-.528-.301-.67a1.781 1.781 0 0 0-.636-.547 1.826 1.826 0 0 0-.84-.191c-.703 0-1.24.283-1.614.848-.283.419-.424 1.077-.424 1.975 0 1.112.169 1.874.506 2.287.337.412.811.619 1.422.619.592 0 1.04-.167 1.343-.5.303-.332.523-.815.66-1.449zm4.21-5.926h8.3v2.14h-5.196v1.592h4.82v2.044h-4.82v1.975h5.346V22h-8.45V11.979zM74.233 22V11.979h5.161c.957 0 1.689.082 2.194.246.506.164.914.468 1.224.912.31.445.465.986.465 1.624 0 .556-.119 1.035-.356 1.439a2.78 2.78 0 0 1-.977.98c-.264.16-.627.292-1.087.397.37.123.638.246.807.37.114.081.279.257.495.526.217.269.361.476.434.622L84.09 22h-3.5l-1.654-3.063c-.21-.396-.396-.653-.56-.772a1.3 1.3 0 0 0-.76-.232h-.273V22h-3.11zm3.11-5.96h1.306c.141 0 .415-.047.82-.138a.819.819 0 0 0 .503-.314.926.926 0 0 0 .195-.581c0-.324-.103-.572-.308-.745-.205-.173-.59-.26-1.155-.26h-1.36v2.037zm7.034-4.061h9.414v2.474H90.63V22h-3.096v-7.547h-3.159V11.98zm10.938 0h3.103V22h-3.103V11.979zm5.339 0h7.656v2.153h-4.546v1.75h3.883v2.023h-3.883V22h-3.11V11.979zm9.447 0h3.104V22H110.1V11.979zm11.997 5.926l2.714.82c-.182.762-.47 1.397-.861 1.908-.392.51-.879.895-1.46 1.155-.58.26-1.32.39-2.218.39-1.09 0-1.979-.159-2.67-.475-.69-.317-1.286-.874-1.787-1.672-.501-.797-.752-1.818-.752-3.062 0-1.66.44-2.934 1.323-3.825.882-.89 2.13-1.336 3.742-1.336 1.263 0 2.255.255 2.977.765.723.51 1.26 1.295 1.61 2.352l-2.734.608c-.096-.305-.196-.528-.3-.67a1.781 1.781 0 0 0-.637-.547 1.826 1.826 0 0 0-.84-.191c-.702 0-1.24.283-1.614.848-.282.419-.423 1.077-.423 1.975 0 1.112.168 1.874.505 2.287.338.412.812.619 1.422.619.593 0 1.04-.167 1.344-.5.303-.332.522-.815.66-1.449zm10.384 2.44h-3.527L128.468 22h-3.165l3.767-10.021h3.377L136.213 22h-3.24l-.492-1.654zm-.65-2.166l-1.107-3.603-1.1 3.603h2.208zm5.415-6.2h4.6c.907 0 1.64.123 2.198.369s1.02.599 1.384 1.06c.365.46.63.995.793 1.606.164.61.246 1.257.246 1.941 0 1.071-.122 1.902-.365 2.492a4.124 4.124 0 0 1-1.016 1.483c-.433.399-.897.664-1.394.797-.68.182-1.294.273-1.846.273h-4.6V11.979zm3.096 2.269v5.476h.76c.646 0 1.106-.072 1.38-.216.273-.143.488-.394.643-.752.154-.357.232-.937.232-1.74 0-1.061-.173-1.788-.52-2.18-.346-.392-.92-.588-1.722-.588h-.773zm7.363 2.748c0-1.636.455-2.91 1.367-3.821.911-.912 2.18-1.367 3.807-1.367 1.668 0 2.954.447 3.856 1.343.902.895 1.353 2.15 1.353 3.763 0 1.171-.197 2.132-.59 2.881a4.216 4.216 0 0 1-1.71 1.75c-.745.417-1.674.626-2.786.626-1.13 0-2.065-.18-2.806-.54-.74-.36-1.34-.93-1.801-1.71-.46-.778-.69-1.754-.69-2.925zm3.096.014c0 1.011.188 1.738.564 2.18.376.442.888.664 1.535.664.665 0 1.18-.217 1.545-.65.364-.433.547-1.21.547-2.331 0-.943-.19-1.633-.571-2.068-.38-.435-.897-.653-1.548-.653-.625 0-1.126.221-1.504.663-.379.442-.568 1.174-.568 2.195zm13.665-5.031h4.6c.908 0 1.64.123 2.199.369.558.246 1.02.599 1.384 1.06.365.46.629.995.793 1.606.164.61.246 1.257.246 1.941 0 1.071-.122 1.902-.366 2.492a4.124 4.124 0 0 1-1.015 1.483c-.433.399-.898.664-1.394.797-.68.182-1.295.273-1.846.273h-4.6V11.979zm3.097 2.269v5.476h.759c.647 0 1.107-.072 1.38-.216.274-.143.488-.394.643-.752.155-.357.233-.937.233-1.74 0-1.061-.174-1.788-.52-2.18-.346-.392-.92-.588-1.723-.588h-.772zm7.745-2.27h8.299v2.14h-5.195v1.593h4.819v2.044h-4.82v1.975h5.346V22h-8.449V11.979zm21.458 5.927l2.714.82c-.182.762-.47 1.397-.861 1.908-.392.51-.879.895-1.46 1.155-.58.26-1.32.39-2.218.39-1.09 0-1.98-.159-2.67-.475-.69-.317-1.286-.874-1.787-1.672-.501-.797-.752-1.818-.752-3.062 0-1.66.44-2.934 1.323-3.825.882-.89 2.13-1.336 3.742-1.336 1.263 0 2.255.255 2.977.765.723.51 1.26 1.295 1.61 2.352l-2.734.608c-.096-.305-.196-.528-.3-.67a1.781 1.781 0 0 0-.637-.547 1.826 1.826 0 0 0-.84-.191c-.702 0-1.24.283-1.614.848-.282.419-.424 1.077-.424 1.975 0 1.112.17 1.874.506 2.287.338.412.812.619 1.422.619.593 0 1.04-.167 1.343-.5.304-.332.523-.815.66-1.449zm3.828-.909c0-1.636.456-2.91 1.367-3.821.912-.912 2.181-1.367 3.808-1.367 1.668 0 2.953.447 3.856 1.343.902.895 1.353 2.15 1.353 3.763 0 1.171-.197 2.132-.591 2.881a4.216 4.216 0 0 1-1.71 1.75c-.744.417-1.673.626-2.785.626-1.13 0-2.065-.18-2.806-.54-.74-.36-1.341-.93-1.801-1.71-.46-.778-.69-1.754-.69-2.925zm3.097.014c0 1.011.188 1.738.564 2.18.376.442.887.664 1.535.664.665 0 1.18-.217 1.544-.65.365-.433.547-1.21.547-2.331 0-.943-.19-1.633-.57-2.068-.381-.435-.897-.653-1.549-.653-.624 0-1.125.221-1.504.663-.378.442-.567 1.174-.567 2.195zm8.976-5.031h2.891l3.774 5.543V11.98h2.918V22h-2.918l-3.753-5.503V22h-2.912V11.979zm18.313 5.926l2.714.82c-.182.762-.47 1.397-.861 1.908-.392.51-.879.895-1.46 1.155s-1.32.39-2.218.39c-1.09 0-1.98-.159-2.67-.475-.69-.317-1.286-.874-1.787-1.672-.502-.797-.752-1.818-.752-3.062 0-1.66.44-2.934 1.323-3.825.881-.89 2.129-1.336 3.742-1.336 1.263 0 2.255.255 2.977.765.723.51 1.26 1.295 1.61 2.352l-2.734.608c-.096-.305-.196-.528-.301-.67a1.781 1.781 0 0 0-.636-.547 1.826 1.826 0 0 0-.84-.191c-.702 0-1.24.283-1.614.848-.282.419-.424 1.077-.424 1.975 0 1.112.169 1.874.506 2.287.337.412.811.619 1.422.619.593 0 1.04-.167 1.343-.5.303-.332.523-.815.66-1.449zm4.218-5.926h3.096v7.553h4.833V22h-7.93V11.979zm15.86 0h3.089v5.974a5.02 5.02 0 0 1-.277 1.678 3.625 3.625 0 0 1-.868 1.381c-.394.394-.808.671-1.24.83-.602.224-1.325.336-2.168.336-.487 0-1.02-.034-1.596-.103-.576-.068-1.058-.204-1.446-.407a3.62 3.62 0 0 1-1.063-.864 3.213 3.213 0 0 1-.66-1.156c-.19-.638-.287-1.203-.287-1.695V11.98h3.09v6.118c0 .547.152.974.455 1.281.303.308.723.462 1.261.462.533 0 .951-.152 1.255-.455.303-.303.454-.732.454-1.288V11.98zm4.6 6.706l2.946-.185c.064.479.194.843.39 1.094.319.405.774.608 1.367.608.442 0 .783-.104 1.022-.31.24-.208.359-.449.359-.722 0-.26-.114-.492-.342-.697-.228-.205-.757-.4-1.586-.581-1.358-.306-2.327-.711-2.905-1.217-.584-.506-.875-1.15-.875-1.935 0-.515.149-1.001.447-1.46.299-.457.748-.817 1.347-1.08.6-.261 1.42-.392 2.464-.392 1.281 0 2.257.238 2.93.714.672.476 1.072 1.234 1.2 2.273l-2.92.17c-.077-.45-.24-.778-.488-.984-.249-.205-.592-.307-1.03-.307-.36 0-.63.076-.813.229a.702.702 0 0 0-.273.557c0 .16.075.303.226.43.145.133.492.256 1.039.37 1.353.291 2.323.587 2.908.885.586.299 1.012.669 1.279 1.11.266.443.4.937.4 1.484 0 .643-.178 1.235-.534 1.778-.355.542-.852.953-1.49 1.233-.638.28-1.442.42-2.413.42-1.704 0-2.885-.327-3.541-.983-.656-.657-1.028-1.49-1.114-2.502zm16.816 1.66h-3.527L268.46 22h-3.165l3.767-10.021h3.377L276.207 22h-3.24l-.493-1.654zm-.65-2.166l-1.107-3.603-1.1 3.603h2.208zm.288-8.682h1.08c.004.119.007.221.007.308 0 .506-.128.897-.383 1.175s-.583.417-.984.417c-.292 0-.734-.12-1.327-.362-.36-.146-.608-.219-.745-.219a.39.39 0 0 0-.307.123c-.073.082-.112.228-.117.438h-1.066a7.003 7.003 0 0 1-.007-.287c0-.488.135-.875.404-1.162.268-.287.587-.43.957-.43.159 0 .31.017.45.054.142.036.403.134.783.294.381.16.658.239.831.239a.38.38 0 0 0 .297-.127c.076-.084.118-.238.127-.46zm4.696 7.5c0-1.637.456-2.91 1.367-3.822.912-.912 2.18-1.367 3.808-1.367 1.668 0 2.953.447 3.855 1.343.903.895 1.354 2.15 1.354 3.763 0 1.171-.197 2.132-.591 2.881a4.216 4.216 0 0 1-1.71 1.75c-.745.417-1.673.626-2.785.626-1.13 0-2.066-.18-2.806-.54-.74-.36-1.341-.93-1.801-1.71-.46-.778-.69-1.754-.69-2.925zm3.097.013c0 1.011.188 1.738.564 2.18.376.442.887.664 1.534.664.666 0 1.18-.217 1.545-.65.365-.433.547-1.21.547-2.331 0-.943-.19-1.633-.57-2.068-.381-.435-.897-.653-1.549-.653-.624 0-1.126.221-1.504.663-.378.442-.567 1.174-.567 2.195z"/></g></svg>